<svg xmlns="http://www.w3.org/2000/svg" width="140" height="28" viewBox="0 0 140 28">
  <g id="Logo_Dark" data-name="Logo/Dark" transform="translate(0 0)">
    <path id="Logo_Dark-2" data-name="Logo/Dark" d="M113.776,27.964a3.559,3.559,0,0,1-.5-.094l.214-1.621a2.079,2.079,0,0,0,.314.076,1.887,1.887,0,0,0,.315.029.889.889,0,0,0,.653-.205,1.683,1.683,0,0,0,.344-.582l.189-.482-2.468-5.758h2.16l1.318,3.76h.035l1.175-3.76h2.065l-2.647,6.733a5.148,5.148,0,0,1-.4.817,2.46,2.46,0,0,1-.522.611,2.074,2.074,0,0,1-.712.382,3.211,3.211,0,0,1-.967.129A4.607,4.607,0,0,1,113.776,27.964ZM55.073,23.5a3.407,3.407,0,1,1,3.406,3.358A3.382,3.382,0,0,1,55.073,23.5ZM37.888,21.813A51.126,51.126,0,0,1,36.2,13.771c-.057-.367-.254-1.641-.254-1.637A51.279,51.279,0,0,0,34.723,5.8q-.055-.187-.11-.355c-.1.27-.206.582-.306.935a51.081,51.081,0,0,0-1.258,7.339l0,.01a53.072,53.072,0,0,1-1.4,8.01c-.913,3.184-2.331,5.123-4.928,5.123s-4.011-1.94-4.924-5.127a53.279,53.279,0,0,1-1.4-8.015A51.078,51.078,0,0,0,19.123,6.34a8.478,8.478,0,0,0-.552-1.482,8.492,8.492,0,0,0-.553,1.487,50.882,50.882,0,0,0-1.269,7.371,53.322,53.322,0,0,1-1.4,8.015c-.913,3.187-2.329,5.127-4.925,5.127S6.41,24.919,5.5,21.732a53.443,53.443,0,0,1-1.4-8.015A51.1,51.1,0,0,0,2.825,6.344,6.336,6.336,0,0,0,2.06,4.507l-.033-.044A2.25,2.25,0,0,1,0,2.238,2.254,2.254,0,0,1,2.271,0C4.867,0,6.282,1.94,7.2,5.127a53.443,53.443,0,0,1,1.4,8.015,51.1,51.1,0,0,0,1.269,7.373A8.424,8.424,0,0,0,10.421,22a8.424,8.424,0,0,0,.554-1.487,50.874,50.874,0,0,0,1.269-7.373,53.33,53.33,0,0,1,1.4-8.014C14.559,1.942,15.974,0,18.568,0s4.012,1.937,4.926,5.124a53.373,53.373,0,0,1,1.4,8.014v0a50.916,50.916,0,0,0,1.269,7.373A8.385,8.385,0,0,0,26.721,22a8.318,8.318,0,0,0,.555-1.487,50.814,50.814,0,0,0,1.266-7.365l0-.01a53.554,53.554,0,0,1,1.39-7.975C30.835,2,32.221.066,34.774,0c.045,0,.089,0,.134,0,2.243.073,3.354,1.742,4.179,4.553a53.924,53.924,0,0,1,1.352,6.9s.2,1.27.254,1.633a48.026,48.026,0,0,0,1.517,7.345,7.942,7.942,0,0,0,.7,1.63,8.061,8.061,0,0,0,.583-1.544,50.978,50.978,0,0,0,1.27-7.365l0-.014a53.385,53.385,0,0,1,1.406-8.015C47.087,1.939,48.5,0,51.1,0a2.254,2.254,0,0,1,2.271,2.238,2.25,2.25,0,0,1-2.028,2.225l-.033.044a6.311,6.311,0,0,0-.765,1.837,50.925,50.925,0,0,0-1.272,7.373l0,.014a53.446,53.446,0,0,1-1.4,8.006c-.913,3.184-2.325,5.122-4.918,5.122C40.4,26.859,38.921,24.956,37.888,21.813Zm47.132,3.332a3.2,3.2,0,0,1-1.045-.628,2.968,2.968,0,0,1-.706-.987,3.146,3.146,0,0,1-.261-1.3,3.113,3.113,0,0,1,.261-1.293,2.925,2.925,0,0,1,.706-.975,3.108,3.108,0,0,1,1.045-.611,3.9,3.9,0,0,1,2.534,0,3.184,3.184,0,0,1,1.045.611,2.888,2.888,0,0,1,.712.975,3.128,3.128,0,0,1,.26,1.293,3.163,3.163,0,0,1-.26,1.3,2.922,2.922,0,0,1-.712.987,3.283,3.283,0,0,1-1.045.628,3.71,3.71,0,0,1-2.534,0Zm.659-4.277a1.335,1.335,0,0,0-.434.335,1.446,1.446,0,0,0-.261.476,1.765,1.765,0,0,0,0,1.1,1.506,1.506,0,0,0,.267.488,1.323,1.323,0,0,0,.439.347,1.485,1.485,0,0,0,1.211,0,1.325,1.325,0,0,0,.439-.347,1.505,1.505,0,0,0,.267-.488,1.749,1.749,0,0,0,.089-.552,1.66,1.66,0,0,0-.1-.552,1.448,1.448,0,0,0-.273-.476,1.393,1.393,0,0,0-.439-.335,1.484,1.484,0,0,0-1.21,0ZM93.458,25.1a1.844,1.844,0,0,1-.813-.687h-.024v.764H90.829V16.3h1.947v3.655H92.8a2.45,2.45,0,0,1,.7-.541,2.282,2.282,0,0,1,1.1-.247,2.612,2.612,0,0,1,2.036.916,3.061,3.061,0,0,1,.557.981,3.531,3.531,0,0,1,.2,1.169,3.676,3.676,0,0,1-.19,1.175,3.027,3.027,0,0,1-.552.993,2.737,2.737,0,0,1-.884.687,2.789,2.789,0,0,1-2.308.018Zm.066-4.236a1.432,1.432,0,0,0-.445.341,1.582,1.582,0,0,0,0,2.068,1.414,1.414,0,0,0,.445.341,1.326,1.326,0,0,0,.593.129,1.315,1.315,0,0,0,1.045-.47,1.413,1.413,0,0,0,.267-.487,1.8,1.8,0,0,0,.089-.558,1.752,1.752,0,0,0-.089-.552,1.376,1.376,0,0,0-.267-.476,1.4,1.4,0,0,0-.439-.335,1.354,1.354,0,0,0-.606-.129A1.326,1.326,0,0,0,93.523,20.867Zm16.984,4.307a1.555,1.555,0,0,1-.648-.423,1.666,1.666,0,0,1-.35-.658,3.174,3.174,0,0,1-.107-.852V20.773h-.949V19.328h.938V17.788H111.3v1.539h1.388v1.446H111.3v2.233a1,1,0,0,0,.16.616.691.691,0,0,0,.575.206,2.123,2.123,0,0,0,.3-.024,1.021,1.021,0,0,0,.267-.07l.024,1.41a3.177,3.177,0,0,1-.511.124,3.658,3.658,0,0,1-.617.053A2.939,2.939,0,0,1,110.507,25.174Zm-36.52.006h-1.91V16.86h2.883L76.872,22.2h.047l1.827-5.335h2.932v8.318H79.7l.047-5.887h-.036l-2.184,5.887H76.1l-2.124-5.887h-.035l.047,5.887h0Zm33.659,0H105.7V19.328h1.947v5.851h0Zm-3.513,0h-1.969V16.3h1.969v8.883h0Zm-3.536,0H98.65V19.328H100.6v5.851h0Zm5.282-6.974a1.007,1.007,0,0,1-.32-.746,1.027,1.027,0,0,1,.082-.405.968.968,0,0,1,.237-.335,1.323,1.323,0,0,1,.356-.229,1.1,1.1,0,0,1,.439-.088,1.189,1.189,0,0,1,.434.082,1.123,1.123,0,0,1,.356.224,1.09,1.09,0,0,1,.237.334,1,1,0,0,1,.089.418.984.984,0,0,1-.089.417,1.072,1.072,0,0,1-.237.334,1.1,1.1,0,0,1-.356.224,1.177,1.177,0,0,1-.434.082A1.1,1.1,0,0,1,105.878,18.206Zm-7.05,0a1.006,1.006,0,0,1-.32-.746,1.027,1.027,0,0,1,.082-.405.973.973,0,0,1,.237-.335,1.322,1.322,0,0,1,.356-.229,1.085,1.085,0,0,1,.44-.088,1.187,1.187,0,0,1,.433.082,1.111,1.111,0,0,1,.356.224,1.09,1.09,0,0,1,.237.334,1,1,0,0,1,.089.418.984.984,0,0,1-.089.417,1.072,1.072,0,0,1-.237.334,1.1,1.1,0,0,1-.356.224,1.173,1.173,0,0,1-.433.082A1.1,1.1,0,0,1,98.828,18.206Zm37.006-8.152a3.073,3.073,0,0,1-1.039-.6,2.785,2.785,0,0,1-.7-.969,3.229,3.229,0,0,1-.255-1.317,3.3,3.3,0,0,1,.249-1.3,2.951,2.951,0,0,1,.677-.987,3.045,3.045,0,0,1,1.009-.628,3.511,3.511,0,0,1,1.258-.223,3.25,3.25,0,0,1,1.2.217,2.623,2.623,0,0,1,.937.629,2.928,2.928,0,0,1,.612,1A3.831,3.831,0,0,1,140,7.216v.235a2.05,2.05,0,0,1-.011.223H135.7a1.036,1.036,0,0,0,.148.447,1.278,1.278,0,0,0,.321.347,1.578,1.578,0,0,0,.944.311,1.652,1.652,0,0,0,.783-.17,1.542,1.542,0,0,0,.522-.441l1.353.846a2.736,2.736,0,0,1-1.1.922,3.673,3.673,0,0,1-1.584.323A3.815,3.815,0,0,1,135.834,10.054Zm.689-4.606a1.366,1.366,0,0,0-.415.241,1.206,1.206,0,0,0-.285.359,1.046,1.046,0,0,0-.119.428h2.5a1.157,1.157,0,0,0-.291-.787,1.111,1.111,0,0,0-.873-.328A1.5,1.5,0,0,0,136.523,5.448ZM85.85,10.036a3.2,3.2,0,0,1-1.045-.628,2.968,2.968,0,0,1-.706-.987,3.146,3.146,0,0,1-.261-1.3A3.113,3.113,0,0,1,84.1,5.83a2.919,2.919,0,0,1,.706-.975,3.087,3.087,0,0,1,1.045-.611,3.9,3.9,0,0,1,2.534,0,3.162,3.162,0,0,1,1.045.611,2.87,2.87,0,0,1,.712.975A3.113,3.113,0,0,1,90.4,7.122a3.146,3.146,0,0,1-.261,1.3,2.907,2.907,0,0,1-.712.987,3.283,3.283,0,0,1-1.045.628,3.71,3.71,0,0,1-2.534,0Zm.659-4.277a1.351,1.351,0,0,0-.434.334,1.465,1.465,0,0,0-.261.477,1.765,1.765,0,0,0,0,1.1,1.506,1.506,0,0,0,.267.488,1.327,1.327,0,0,0,.439.347,1.483,1.483,0,0,0,1.21,0,1.324,1.324,0,0,0,.44-.347,1.517,1.517,0,0,0,.267-.488,1.749,1.749,0,0,0,.089-.552,1.66,1.66,0,0,0-.1-.552,1.46,1.46,0,0,0-.273-.477,1.4,1.4,0,0,0-.439-.334,1.483,1.483,0,0,0-1.21,0Zm41.148,4.218a2.729,2.729,0,0,1-.884-.687,3.023,3.023,0,0,1-.552-.993,3.676,3.676,0,0,1-.19-1.175,3.512,3.512,0,0,1,.2-1.169,3.056,3.056,0,0,1,.557-.981,2.612,2.612,0,0,1,2.036-.916,2.282,2.282,0,0,1,1.1.247,2.45,2.45,0,0,1,.7.541h.024V1.188h1.947v8.883H130.8V9.308h-.024a1.845,1.845,0,0,1-.812.687,2.684,2.684,0,0,1-1.122.241A2.649,2.649,0,0,1,127.657,9.978ZM128.7,5.759a1.414,1.414,0,0,0-.439.334A1.393,1.393,0,0,0,128,6.57a1.749,1.749,0,0,0-.089.552,1.8,1.8,0,0,0,.089.558,1.42,1.42,0,0,0,.267.487,1.315,1.315,0,0,0,1.045.47,1.336,1.336,0,0,0,.593-.129,1.423,1.423,0,0,0,.445-.341,1.548,1.548,0,0,0,.285-.482,1.583,1.583,0,0,0-.285-1.586,1.438,1.438,0,0,0-.445-.341,1.326,1.326,0,0,0-.593-.129A1.354,1.354,0,0,0,128.7,5.759ZM101.2,9.978a2.729,2.729,0,0,1-.884-.687,3.031,3.031,0,0,1-.552-.993,3.675,3.675,0,0,1-.19-1.175,3.512,3.512,0,0,1,.2-1.169,3.056,3.056,0,0,1,.557-.981,2.612,2.612,0,0,1,2.036-.916,2.282,2.282,0,0,1,1.1.247,2.45,2.45,0,0,1,.7.541h.024V1.188h1.947v8.883h-1.792V9.308h-.024a1.844,1.844,0,0,1-.813.687,2.689,2.689,0,0,1-1.122.241A2.65,2.65,0,0,1,101.2,9.978Zm1.044-4.218a1.414,1.414,0,0,0-.439.334,1.393,1.393,0,0,0-.267.477,1.752,1.752,0,0,0-.089.552,1.8,1.8,0,0,0,.089.558,1.413,1.413,0,0,0,.267.487,1.315,1.315,0,0,0,1.045.47,1.336,1.336,0,0,0,.593-.129,1.423,1.423,0,0,0,.445-.341,1.583,1.583,0,0,0,0-2.068,1.438,1.438,0,0,0-.445-.341,1.326,1.326,0,0,0-.593-.129A1.354,1.354,0,0,0,102.246,5.759Zm12.046,4.313h-2.017L109.89,1.753h2.184L113.4,7.287h.035l1.5-5.534h2.112l1.507,5.534h.036l1.352-5.534h2.113l-2.4,8.319h-2.005L115.99,4.443h-.036l-1.662,5.629h0Zm-38.679,0H73.6L71.211,1.753h2.184l1.329,5.534h.036l1.5-5.534h2.113l1.507,5.534h.035l1.353-5.534h2.113l-2.4,8.319H78.972L77.311,4.443h-.036l-1.662,5.629h0Zm49.171,0h-1.946V4.22h1.947v5.851h0Zm-26.455,0H96.359V1.188h1.97v8.883h0Zm-4.747,0H91.636V4.22h1.875v.846h.024a1.915,1.915,0,0,1,.641-.729,1.681,1.681,0,0,1,.961-.282,2.312,2.312,0,0,1,.231.011.951.951,0,0,1,.184.035L95.47,5.794a1.619,1.619,0,0,0-.255-.047c-.082-.008-.165-.011-.244-.011a1.416,1.416,0,0,0-.659.141,1.348,1.348,0,0,0-.427.341,1.293,1.293,0,0,0-.231.435,1.45,1.45,0,0,0-.071.412v3.007h0ZM123.016,3.1a1,1,0,0,1-.321-.746,1.021,1.021,0,0,1,.083-.4.953.953,0,0,1,.237-.335,1.306,1.306,0,0,1,.356-.229,1.087,1.087,0,0,1,.439-.089,1.176,1.176,0,0,1,.433.082,1.094,1.094,0,0,1,.357.224,1.073,1.073,0,0,1,.237.334,1.019,1.019,0,0,1,0,.835,1.065,1.065,0,0,1-.237.334,1.108,1.108,0,0,1-.357.224,1.181,1.181,0,0,1-.433.082A1.1,1.1,0,0,1,123.016,3.1Z" transform="translate(0 0)" fill="#fff"/>
  </g>
</svg>
